<?xml version="1.0" standalone="no"?>
<!DOCTYPE svg PUBLIC "-//W3C//DTD SVG 20010904//EN"
 "http://www.w3.org/TR/2001/REC-SVG-20010904/DTD/svg10.dtd">
<svg version="1.0" xmlns="http://www.w3.org/2000/svg"
 width="512.000000pt" height="512.000000pt" viewBox="0 0 512.000000 512.000000"
 preserveAspectRatio="xMidYMid meet">
<metadata>
Created by potrace 1.11, written by Peter Selinger 2001-2013
</metadata>
<g transform="translate(0.000000,512.000000) scale(0.100000,-0.100000)"
fill="#000000" stroke="none">
<path d="M2379 5116 c-2 -2 -35 -6 -74 -10 -38 -3 -97 -10 -130 -16 -33 -6
-78 -13 -100 -16 -22 -4 -96 -22 -165 -40 -366 -100 -695 -268 -1020 -520
-164 -128 -468 -433 -509 -511 -22 -42 -13 -83 24 -120 35 -35 37 -36 95 -30
l60 7 -58 -73 c-67 -82 -124 -175 -141 -229 -17 -51 6 -100 57 -124 36 -17 40
-17 115 2 42 11 77 17 77 12 0 -5 -7 -25 -16 -46 -24 -57 -129 -375 -163 -492
-74 -261 -154 -620 -186 -840 -2 -14 -11 -70 -19 -125 -16 -106 -21 -143 -31
-240 -3 -33 -8 -71 -10 -85 -3 -14 -7 -61 -11 -105 -3 -44 -7 -98 -9 -120 -30
-317 -23 -1092 10 -1171 27 -65 115 -93 176 -57 17 10 53 51 81 92 93 135 230
289 365 413 70 63 212 173 217 167 2 -2 6 -23 10 -46 12 -88 38 -171 86 -268
52 -106 144 -229 181 -240 59 -19 135 5 158 49 6 12 24 61 40 109 67 196 198
386 350 506 l41 32 31 -33 c81 -87 161 -235 212 -393 37 -113 52 -179 81 -344
26 -149 35 -170 88 -197 56 -29 108 -11 249 88 111 77 154 113 244 203 117
117 192 229 261 392 8 20 15 13 81 -75 40 -53 100 -143 135 -199 68 -110 96
-134 159 -135 50 -1 87 24 112 75 52 105 116 339 132 486 3 18 6 36 9 38 3 3
45 -2 93 -11 48 -8 108 -18 133 -21 247 -27 255 -27 294 -11 52 22 78 69 72
130 -5 46 -11 54 -94 135 -329 320 -575 844 -647 1381 -3 25 -8 56 -10 70 -9
64 -18 246 -16 348 l1 53 98 -5 c174 -9 313 -36 472 -92 111 -39 178 -51 234
-43 58 9 159 57 199 95 16 14 30 24 31 23 2 -2 13 -22 24 -44 29 -58 48 -139
51 -215 3 -79 19 -107 67 -116 52 -10 80 16 135 122 193 377 206 704 38 987
-42 71 -142 193 -193 236 -15 14 -33 30 -40 36 -21 21 -116 75 -173 99 -108
45 -329 104 -360 96 -3 0 -23 45 -43 102 -44 123 -65 166 -138 278 -48 74
-188 227 -262 285 -138 109 -356 210 -560 259 -58 14 -93 20 -235 41 -42 7
-460 16 -466 11z m441 -179 c14 -3 48 -9 75 -13 55 -8 51 -7 127 -23 294 -62
580 -243 726 -458 47 -69 117 -205 127 -246 l7 -26 -97 5 c-126 8 -170 -8
-219 -75 -51 -69 -74 -130 -82 -214 l-6 -74 -87 -27 c-316 -102 -542 -224
-686 -370 -155 -156 -186 -299 -89 -405 34 -39 120 -86 170 -95 83 -15 116
-17 169 -7 33 6 80 13 105 16 25 3 55 8 66 10 12 3 63 8 113 11 l91 6 0 -128
c1 -148 6 -219 35 -429 30 -221 126 -526 239 -760 104 -215 241 -426 370 -570
39 -44 45 -59 19 -51 -10 3 -41 8 -69 11 -29 3 -100 14 -160 25 -138 26 -170
25 -211 -3 -38 -26 -50 -55 -58 -152 -4 -38 -13 -104 -22 -145 -15 -76 -61
-230 -68 -230 -2 0 -27 35 -56 77 -71 106 -148 207 -211 276 -45 50 -59 59
-97 64 -49 7 -97 -13 -119 -48 -7 -11 -24 -58 -37 -104 -57 -196 -211 -383
-447 -543 -54 -37 -68 -40 -68 -12 0 41 -52 276 -82 369 -99 310 -285 561
-415 561 -38 0 -118 -55 -216 -149 -146 -138 -251 -300 -321 -496 -7 -19 -8
-19 -28 5 -59 70 -118 254 -118 365 0 106 -54 170 -137 162 -70 -7 -286 -163
-452 -325 -86 -83 -223 -240 -249 -284 -9 -16 -19 -28 -22 -28 -20 0 -16 809
5 975 2 17 7 64 10 105 8 101 13 146 20 205 3 28 8 68 11 90 25 217 88 561
149 810 73 299 162 581 259 818 40 98 42 113 22 162 -21 50 -70 77 -126 71
-25 -2 -54 -8 -64 -12 -18 -7 -18 -4 4 27 14 19 64 75 113 126 75 78 90 98 94
133 11 81 -60 152 -144 144 l-38 -4 110 106 c468 453 1001 712 1590 774 73 7
432 5 475 -3z m1045 -942 c105 -9 197 -23 320 -49 57 -12 168 -52 234 -85 140
-68 287 -241 344 -406 25 -74 28 -91 31 -190 3 -94 -10 -177 -45 -294 l-12
-41 -38 67 c-134 243 -404 382 -794 410 -161 12 -540 5 -660 -11 -16 -2 -60
-7 -96 -10 -36 -4 -106 -13 -155 -21 -49 -8 -96 -15 -103 -15 -22 0 142 102
255 158 105 52 232 102 325 126 133 34 179 86 179 204 1 62 19 123 45 152 13
14 27 18 59 15 22 -2 73 -6 111 -10z m30 -759 c183 -11 363 -61 479 -134 l48
-29 -34 -28 c-41 -35 -88 -55 -128 -55 -17 0 -79 16 -138 36 -111 37 -242 71
-309 79 -21 3 -67 10 -103 15 -63 9 -423 7 -506 -3 -23 -3 -70 -8 -105 -12
-35 -4 -66 -8 -69 -10 -10 -6 -115 -19 -151 -19 -40 0 -129 31 -129 45 0 16
152 61 250 74 25 3 56 8 70 10 84 14 166 21 380 30 91 4 166 8 167 9 3 3 183
-3 278 -8z"/>
<path d="M2315 4359 c-99 -31 -199 -108 -286 -224 -21 -28 -45 -66 -52 -85
-26 -65 10 -122 77 -122 33 0 50 14 90 77 42 64 123 142 180 172 27 14 28 14
21 -3 -30 -71 -38 -108 -38 -171 0 -61 5 -82 32 -137 78 -160 254 -234 418
-178 97 34 181 119 212 215 10 30 17 37 32 32 10 -3 47 -9 81 -14 150 -17 311
65 325 167 4 32 1 44 -16 61 -43 43 -79 38 -156 -23 -95 -76 -252 -33 -455
124 -156 122 -309 157 -465 109z m371 -252 c49 -35 99 -69 110 -75 19 -10 20
-17 14 -51 -29 -161 -245 -190 -316 -44 -21 45 -21 110 0 151 16 32 73 82 92
82 7 0 52 -29 100 -63z"/>
<path d="M4025 3806 c-27 -20 -73 -43 -102 -51 -85 -25 -110 -90 -55 -145 25
-24 34 -27 73 -23 59 6 155 52 202 95 29 28 37 43 37 70 0 44 -28 77 -72 84
-27 5 -42 -1 -83 -30z"/>
</g>
</svg>
